<?xml version="1.0" encoding="UTF-8" standalone="no"?>
<!DOCTYPE svg PUBLIC "-//W3C//DTD SVG 1.1//EN" "http://www.w3.org/Graphics/SVG/1.1/DTD/svg11.dtd">
<svg version="1.1" xmlns="http://www.w3.org/2000/svg" xmlns:xlink="http://www.w3.org/1999/xlink" preserveAspectRatio="xMidYMid meet" viewBox="0 0 401 401" width="401" height="401"><defs><path d="M0 401L0 218.72L182.27 218.72L182.27 401L0 401ZM36.45 364.26L145.82 364.26L145.82 255.18L36.45 255.18L36.45 364.26Z" id="c4EjTiqRPu"></path><path d="M109.36 291.63C109.36 291.63 109.36 291.63 109.36 291.63C109.36 313.51 109.36 325.66 109.36 328.09C109.36 328.09 109.36 328.09 109.36 328.09C87.49 328.09 75.34 328.09 72.91 328.09C72.91 328.09 72.91 328.09 72.91 328.09C72.91 306.22 72.91 294.06 72.91 291.63C72.91 291.63 72.91 291.63 72.91 291.63C94.78 291.63 106.93 291.63 109.36 291.63Z" id="e1x2wlSIyH"></path><path d="M328.09 364.55C328.09 364.55 328.09 364.55 328.09 364.55C328.09 386.42 328.09 398.57 328.09 401C328.09 401 328.09 401 328.09 401C306.21 401 294.06 401 291.63 401C291.63 401 291.63 401 291.63 401C291.63 379.13 291.63 366.98 291.63 364.55C291.63 364.55 291.63 364.55 291.63 364.55C313.51 364.55 325.66 364.55 328.09 364.55Z" id="b2SEDxmpGS"></path><path d="M401 364.55C401 364.55 401 364.55 401 364.55C401 386.42 401 398.57 401 401C401 401 401 401 401 401C379.12 401 366.97 401 364.54 401C364.54 401 364.54 401 364.54 401C364.54 379.13 364.54 366.98 364.54 364.55C364.54 364.55 364.54 364.55 364.54 364.55C386.42 364.55 398.57 364.55 401 364.55Z" id="b1t3ctO9Ib"></path><path d="M328.09 255.18L328.09 218.72L218.72 218.72L218.72 401L255.18 401L255.18 291.63L291.63 291.63L291.63 328.09L401 328.09L401 218.72L401 218.72L364.54 218.72L364.54 255.18L328.09 255.18Z" id="f2X4EE7RDM"></path><path d="M0 182.28L0 0L182.27 0L182.27 182.28L0 182.28ZM36.45 145.82L145.82 145.82L145.82 36.45L36.45 36.45L36.45 145.82Z" id="c222nLedUh"></path><path d="M109.36 72.91C109.36 72.91 109.36 72.91 109.36 72.91C109.36 94.78 109.36 106.93 109.36 109.36C109.36 109.36 109.36 109.36 109.36 109.36C87.49 109.36 75.34 109.36 72.91 109.36C72.91 109.36 72.91 109.36 72.91 109.36C72.91 87.49 72.91 75.34 72.91 72.91C72.91 72.91 72.91 72.91 72.91 72.91C94.78 72.91 106.93 72.91 109.36 72.91Z" id="bfDGWJSeW"></path><path d="M218.72 182.28L218.72 0L401 0L401 182.28L218.72 182.28ZM255.18 145.82L364.54 145.82L364.54 36.45L255.18 36.45L255.18 145.82Z" id="a8V10SdpO"></path><path d="M328.09 72.91C328.09 72.91 328.09 72.91 328.09 72.91C328.09 94.78 328.09 106.93 328.09 109.36C328.09 109.36 328.09 109.36 328.09 109.36C306.21 109.36 294.06 109.36 291.63 109.36C291.63 109.36 291.63 109.36 291.63 109.36C291.63 87.49 291.63 75.34 291.63 72.91C291.63 72.91 291.63 72.91 291.63 72.91C313.51 72.91 325.66 72.91 328.09 72.91Z" id="eWcmpmYP8"></path></defs><g><g><g><use xlink:href="#c4EjTiqRPu" opacity="1" fill="#ffffff" fill-opacity="1"></use><g><use xlink:href="#c4EjTiqRPu" opacity="1" fill-opacity="0" stroke="#000000" stroke-width="1" stroke-opacity="0"></use></g></g><g><use xlink:href="#e1x2wlSIyH" opacity="1" fill="#ffffff" fill-opacity="1"></use><g><use xlink:href="#e1x2wlSIyH" opacity="1" fill-opacity="0" stroke="#000000" stroke-width="1" stroke-opacity="0"></use></g></g><g><use xlink:href="#b2SEDxmpGS" opacity="1" fill="#ffffff" fill-opacity="1"></use><g><use xlink:href="#b2SEDxmpGS" opacity="1" fill-opacity="0" stroke="#000000" stroke-width="1" stroke-opacity="0"></use></g></g><g><use xlink:href="#b1t3ctO9Ib" opacity="1" fill="#ffffff" fill-opacity="1"></use><g><use xlink:href="#b1t3ctO9Ib" opacity="1" fill-opacity="0" stroke="#000000" stroke-width="1" stroke-opacity="0"></use></g></g><g><use xlink:href="#f2X4EE7RDM" opacity="1" fill="#ffffff" fill-opacity="1"></use><g><use xlink:href="#f2X4EE7RDM" opacity="1" fill-opacity="0" stroke="#000000" stroke-width="1" stroke-opacity="0"></use></g></g><g><use xlink:href="#c222nLedUh" opacity="1" fill="#ffffff" fill-opacity="1"></use><g><use xlink:href="#c222nLedUh" opacity="1" fill-opacity="0" stroke="#000000" stroke-width="1" stroke-opacity="0"></use></g></g><g><use xlink:href="#bfDGWJSeW" opacity="1" fill="#ffffff" fill-opacity="1"></use><g><use xlink:href="#bfDGWJSeW" opacity="1" fill-opacity="0" stroke="#000000" stroke-width="1" stroke-opacity="0"></use></g></g><g><use xlink:href="#a8V10SdpO" opacity="1" fill="#ffffff" fill-opacity="1"></use><g><use xlink:href="#a8V10SdpO" opacity="1" fill-opacity="0" stroke="#000000" stroke-width="1" stroke-opacity="0"></use></g></g><g><use xlink:href="#eWcmpmYP8" opacity="1" fill="#ffffff" fill-opacity="1"></use><g><use xlink:href="#eWcmpmYP8" opacity="1" fill-opacity="0" stroke="#000000" stroke-width="1" stroke-opacity="0"></use></g></g></g></g></svg>