<?xml version="1.0" encoding="utf-8"?>
<!-- Generator: Adobe Illustrator 15.0.0, SVG Export Plug-In . SVG Version: 6.00 Build 0)  -->
<!DOCTYPE svg PUBLIC "-//W3C//DTD SVG 1.1//EN" "http://www.w3.org/Graphics/SVG/1.1/DTD/svg11.dtd">
<svg version="1.1" id="Layer_1" xmlns="http://www.w3.org/2000/svg" xmlns:xlink="http://www.w3.org/1999/xlink" x="0px" y="0px"
	 width="457px" height="108px" viewBox="0 0 457 108" enable-background="new 0 0 457 108" xml:space="preserve">
<g>
	<polyline fill="#238BFF" points="3.336,3.113 134.61,3.113 134.61,23.763 3.336,23.763 	"/>
	<polyline fill="#FFFFFF" points="30.449,104.887 68.973,66.363 107.498,104.887 134.615,104.887 68.977,39.249 68.973,39.253 
		68.969,39.249 3.333,104.887 	"/>
	<g>
		<path fill="#FFFFFF" d="M217.965,47.807c-0.063-0.188-0.126-0.484-0.188-0.891c-0.063-0.406-0.25-0.859-0.563-1.36
			c-0.501-0.875-1.329-1.609-2.485-2.204c-1.158-0.594-2.799-0.891-4.924-0.891c-2.251,0-3.925,0.391-5.018,1.172
			c-1.095,0.783-1.641,1.798-1.641,3.048c0,0.689,0.188,1.282,0.563,1.782c0.375,0.501,0.922,0.938,1.642,1.313
			c0.718,0.375,1.547,0.704,2.485,0.985s1.97,0.609,3.095,0.985c3.377,1.064,6.221,2.017,8.536,2.861
			c2.313,0.844,4.095,1.674,5.346,2.485c1.375,0.938,2.469,1.939,3.283,3.002c0.812,1.063,1.421,2.126,1.829,3.188
			c0.406,1.063,0.656,2.063,0.75,3.001s0.141,1.689,0.141,2.252c0,1.75-0.234,3.299-0.703,4.643
			c-0.469,1.346-1.048,2.502-1.735,3.471c-0.688,0.969-1.407,1.781-2.157,2.438s-1.376,1.174-1.876,1.549
			c-1.251,0.813-2.579,1.439-3.986,1.875c-1.407,0.438-2.767,0.766-4.08,0.984c-1.313,0.219-2.455,0.344-3.424,0.375
			c-0.97,0.031-1.641,0.049-2.017,0.049c-4.19,0-7.583-0.486-10.177-1.455c-2.595-0.969-4.612-2.047-6.049-3.236
			c-1.627-1.313-2.783-2.688-3.471-4.127c-0.688-1.438-1.125-2.5-1.313-3.188c-0.438-1.502-0.673-2.939-0.704-4.314
			c-0.032-1.375-0.047-2.283-0.047-2.721h12.1c0.062,1.439,0.218,2.768,0.469,3.986c0.25,1.219,1,2.268,2.251,3.143
			c0.624,0.438,1.328,0.781,2.11,1.031c0.781,0.25,1.547,0.422,2.298,0.516s1.391,0.156,1.923,0.188
			c0.53,0.033,0.828,0.047,0.891,0.047c2.5,0,4.329-0.469,5.487-1.406c1.156-0.939,1.735-2.064,1.735-3.377
			c0-0.125-0.016-0.375-0.047-0.75c-0.032-0.375-0.173-0.75-0.422-1.127c-0.438-0.938-1.235-1.625-2.392-2.063
			c-1.158-0.438-2.673-0.969-4.549-1.595c-1.626-0.499-3.221-1.016-4.783-1.548c-1.564-0.53-3.127-1.109-4.69-1.734
			c-2.251-0.875-4.237-1.892-5.956-3.049c-1.72-1.156-3.018-2.922-3.892-5.299c-0.375-1.063-0.61-2.031-0.704-2.908
			c-0.094-0.875-0.141-1.531-0.141-1.97c0-2,0.328-3.705,0.985-5.112c0.656-1.407,1.203-2.392,1.641-2.955
			c0.563-0.812,1.313-1.609,2.251-2.392c0.938-0.781,2.078-1.484,3.423-2.11c1.344-0.625,2.908-1.14,4.689-1.548
			c1.782-0.406,3.799-0.609,6.05-0.609c0.437,0,1.25,0.016,2.439,0.047c1.187,0.032,2.532,0.204,4.033,0.516
			c1.5,0.314,3.079,0.813,4.736,1.501c1.656,0.689,3.173,1.688,4.549,3.001c0.312,0.313,0.781,0.83,1.407,1.547
			c0.625,0.72,1.187,1.642,1.688,2.767c0.563,1.376,0.891,2.643,0.985,3.799c0.094,1.158,0.141,1.986,0.141,2.485L217.965,47.807z"
			/>
		<path fill="#FFFFFF" d="M275.648,50.809c-0.125-0.5-0.328-1.219-0.609-2.157s-0.75-1.86-1.406-2.767
			c-0.658-0.906-1.549-1.703-2.674-2.392c-1.125-0.688-2.596-1.032-4.408-1.032c-1.439,0-2.83,0.281-4.174,0.844
			c-1.346,0.563-2.549,1.47-3.611,2.72c-1.064,1.251-1.924,2.893-2.58,4.924c-0.656,2.033-0.984,4.487-0.984,7.363
			c0,0.313,0.016,0.954,0.047,1.923c0.031,0.97,0.188,2.079,0.469,3.329c0.281,1.251,0.734,2.548,1.361,3.894
			c0.623,1.344,1.5,2.518,2.625,3.516c1.438,1.377,2.861,2.174,4.268,2.393c1.408,0.219,2.453,0.328,3.143,0.328
			c0.438,0,1.125-0.047,2.063-0.141c0.939-0.094,1.908-0.484,2.908-1.172s1.783-1.516,2.346-2.486
			c0.563-0.969,0.969-1.938,1.219-2.908c0.25-0.969,0.406-1.828,0.469-2.578c0.063-0.751,0.094-1.25,0.094-1.501h11.35
			c-0.063,1.251-0.127,2.407-0.188,3.47c-0.063,1.064-0.25,2.158-0.563,3.283c-0.502,2.127-1.268,3.955-2.299,5.486
			c-1.031,1.533-2.127,2.814-3.283,3.846c-1.156,1.033-2.297,1.83-3.422,2.393c-1.127,0.563-2.033,0.971-2.721,1.219
			c-1.752,0.625-3.377,1-4.877,1.125c-1.502,0.125-2.564,0.189-3.189,0.189c-3.877,0-7.316-0.643-10.318-1.924
			c-3-1.281-5.533-3.063-7.596-5.346c-2.064-2.283-3.645-4.986-4.738-8.113s-1.641-6.566-1.641-10.317
			c0-2.563,0.219-4.784,0.656-6.66c0.438-1.876,0.813-3.251,1.127-4.127c1.813-4.939,4.643-8.707,8.488-11.302
			c3.844-2.594,8.361-3.893,13.553-3.893c0.75,0,1.953,0.079,3.611,0.234c1.656,0.157,3.438,0.595,5.346,1.313
			c1.906,0.72,3.766,1.829,5.58,3.33c1.814,1.5,3.252,3.596,4.314,6.284c0.625,1.563,1.033,3.081,1.221,4.549
			c0.188,1.47,0.313,2.455,0.375,2.955L275.648,50.809z"/>
		<path fill="#FFFFFF" d="M329.297,33.269l18.291,49.617h-13.506l-3.002-9.848h-16.883l-2.908,9.848h-13.6l18.383-49.617H329.297z
			 M328.266,63.471l-5.627-18.384l-5.441,18.384H328.266z"/>
		<path fill="#FFFFFF" d="M373.006,33.269v39.582h22.416v10.035h-34.797V33.269H373.006z"/>
		<path fill="#FFFFFF" d="M435.377,33.269l18.291,49.617h-13.506l-3.002-9.848h-16.883l-2.908,9.848h-13.6l18.383-49.617H435.377z
			 M434.346,63.471l-5.627-18.384l-5.441,18.384H434.346z"/>
	</g>
</g>
</svg>
